<svg width="18" height="18" viewBox="0 0 18 18" fill="none" xmlns="http://www.w3.org/2000/svg">
<path fill-rule="evenodd" clip-rule="evenodd" d="M4.96724 0H13.0325C15.7717 0 18.0001 2.22841 18 4.96735V13.0327C18 15.7716 15.7717 18 13.0325 18H4.96724C2.22831 18 0 15.7717 0 13.0327V4.96735C0 2.22841 2.22831 0 4.96724 0ZM13.0326 16.403C14.8911 16.403 16.4031 14.8911 16.4031 13.0326H16.403V4.96735C16.403 3.10903 14.891 1.59705 13.0325 1.59705H4.96724C3.10892 1.59705 1.59705 3.10903 1.59705 4.96735V13.0326C1.59705 14.8911 3.10892 16.4031 4.96724 16.403H13.0326Z" fill="black"/>
<path fill-rule="evenodd" clip-rule="evenodd" d="M4.5 9.0001C4.5 6.51871 6.51866 4.5 9 4.5C11.4813 4.5 13.5 6.51871 13.5 9.0001C13.5 11.4814 11.4813 13.5 9 13.5C6.51866 13.5 4.5 11.4814 4.5 9.0001ZM6.04948 9C6.04948 10.6269 7.37315 11.9504 9 11.9504C10.6269 11.9504 11.9505 10.6269 11.9505 9C11.9505 7.37301 10.627 6.04941 9 6.04941C7.37305 6.04941 6.04948 7.37301 6.04948 9Z" fill="black"/>
<path d="M13.5 3.375C13.2044 3.375 12.9141 3.49466 12.7053 3.70432C12.4956 3.91295 12.375 4.20341 12.375 4.5C12.375 4.79567 12.4957 5.08602 12.7053 5.29568C12.914 5.50432 13.2044 5.625 13.5 5.625C13.7966 5.625 14.086 5.50432 14.2957 5.29568C14.5053 5.08602 14.625 4.79557 14.625 4.5C14.625 4.20341 14.5053 3.91295 14.2957 3.70432C14.087 3.49466 13.7966 3.375 13.5 3.375Z" fill="black"/>
</svg>
