<svg width="15" height="20" viewBox="0 0 15 20" fill="none" xmlns="http://www.w3.org/2000/svg">
<path d="M7.75098 0C2.69098 0 0 3.45862 0 7.22987C0 8.97887 0.916224 11.1599 2.38288 11.8516C2.60559 11.9587 2.72675 11.9132 2.77637 11.6928C2.82022 11.5254 3.01292 10.7193 3.10639 10.3389C3.13524 10.2171 3.12024 10.1112 3.02793 9.99676C2.54096 9.39612 2.1544 8.30191 2.1544 7.27541C2.1544 4.64513 4.11493 2.09117 7.45096 2.09117C10.3358 2.09117 12.354 4.09003 12.354 6.94924C12.354 10.1802 10.7512 12.4153 8.66836 12.4153C7.51558 12.4153 6.65705 11.4504 6.92938 10.2565C7.25825 8.83486 7.9033 7.30618 7.9033 6.2809C7.9033 5.36147 7.41634 4.60082 6.42165 4.60082C5.2481 4.60082 4.2961 5.84026 4.2961 7.50434C4.2961 8.56162 4.6469 9.2755 4.6469 9.2755C4.6469 9.2755 3.48604 14.2776 3.27025 15.2118C2.90561 16.7934 3.31987 19.3547 3.35564 19.575C3.37757 19.6969 3.50565 19.735 3.5772 19.6354C3.69144 19.4753 5.09462 17.3399 5.48811 15.7964C5.6312 15.2339 6.21856 12.9532 6.21856 12.9532C6.60512 13.6979 7.72098 14.3219 8.90953 14.3219C12.4452 14.3219 15 11.0073 15 6.89385C14.9873 2.95029 11.8232 0 7.75098 0Z" fill="black"/>
</svg>
